<svg data-v-6805eed4="" version="1.0" xmlns="http://www.w3.org/2000/svg"
  xmlns:xlink="http://www.w3.org/1999/xlink" width="100%" height="100%"
  viewBox="0 0 340.000000 250.000000" preserveAspectRatio="xMidYMid meet"
  color-interpolation-filters="sRGB" style="margin: auto;">
  <rect data-v-6805eed4="" x="0" y="0" width="100%" height="100%" fill="#4c33de" fill-opacity="1"
    class="background"></rect> <!---->
  <g data-v-6805eed4="" fill="#f7c353" class="endsvg"
    transform="translate(77.63500213623047,96.38999938964844)">
    <g class="tp-name">
      <g>
        <rect data-gra="graph-name-bg" stroke-width="2" class="i-icon-bg" x="0" y="0"
          width="184.72999572753906" height="57.220001220703125" fill-opacity="0"></rect> <!----> <!---->
      </g>
      <g transform="translate(0,0)">
        <g data-gra="path-name-bg">
          <g>
            <rect data-gra="graph-name-bg" stroke-width="2" class="i-icon-bg" x="0" y="0"
              width="83.12999725341797" height="57.220001220703125" fill-opacity="0"></rect> <!----> <!---->
          </g>
          <g transform="translate(5,5)">
            <g data-gra="path-name">
              <g transform="scale(1)">
                <path
                  d="M29.26-45.45L41.64-2.73L25.90-0.70L23.99-7.87L16.76-7.87L15.17-0.70L-1.02-2.29L11.62-44.56L29.26-45.45ZM18.09-17.58L22.85-17.58L20.44-28.63L18.09-17.58ZM37.51-45.32L72.11-45.39L71.79-31.93L62.33-31.55L59.92-1.46L46.53-0.76L46.59-30.85L37.13-30.34L37.51-45.32Z"
                  transform="translate(1.015625, 46.2744140625)"></path>
              </g>
            </g>
          </g>
        </g>
        <g data-gra="path-name-1-bg" transform="translate(83.12999725341797,0)"
          mask="url(#5d44b4e6-bd21-4678-ada5-072a2e7c51c5)">
          <g>
            <rect data-gra="graph-name-bg" stroke-width="2" class="i-icon-bg" x="0" y="0"
              width="101.5999984741211" height="57.220001220703125" fill="#ffffff"></rect> <!----> <!---->
          </g>
          <g transform="translate(5,5)">
            <g data-gra="path-name-1" fill="#ffffff">
              <g transform="scale(1)">
                <path
                  d="M40.85-22.41L40.85-22.41Q40.85-19.52 40.18-16.84Q39.51-14.16 38.26-11.81Q37.01-9.46 35.21-7.51Q33.42-5.55 31.18-4.16Q28.95-2.76 26.31-1.98Q23.68-1.21 20.73-1.21L20.73-1.21Q17.87-1.21 15.28-1.94Q12.70-2.67 10.44-3.98Q8.19-5.30 6.36-7.16Q4.54-9.01 3.25-11.28Q1.97-13.55 1.25-16.15Q0.54-18.76 0.54-21.58L0.54-21.58Q0.54-24.34 1.21-26.99Q1.87-29.64 3.13-31.99Q4.38-34.34 6.16-36.31Q7.93-38.28 10.14-39.70Q12.35-41.13 14.92-41.93Q17.49-42.72 20.34-42.72L20.34-42.72Q24.95-42.72 28.74-41.29Q32.53-39.86 35.21-37.21Q37.90-34.56 39.37-30.80Q40.85-27.04 40.85-22.41ZM26.76-21.58L26.76-21.58Q26.76-22.95 26.36-24.23Q25.96-25.52 25.20-26.52Q24.44-27.52 23.31-28.14Q22.19-28.75 20.73-28.75L20.73-28.75Q19.23-28.75 18.06-28.22Q16.88-27.68 16.04-26.74Q15.20-25.80 14.76-24.55Q14.31-23.30 14.31-21.90L14.31-21.90Q14.31-20.57 14.69-19.23Q15.08-17.90 15.84-16.82Q16.60-15.74 17.73-15.08Q18.85-14.41 20.34-14.41L20.34-14.41Q21.84-14.41 23.03-15.00Q24.22-15.58 25.04-16.58Q25.87-17.58 26.31-18.88Q26.76-20.19 26.76-21.58ZM75.06-46.27L92.14-46.27L89.22 0.32L74.74 0.95L74.87-23.61L68.33-3.81L62.75-3.81L57.73-21.52L57.67-0.95L43.01-0.51L43.64-44.37L59.95-45.00L66.43-23.99L75.06-46.27Z"
                  transform="translate(-0.53955078125, 46.2744140625)"></path>
              </g>
            </g>
          </g>
        </g>
      </g>
    </g> <!----> <!----> <!----> <!----> <!----> <!---->
  </g>
  <mask id="5d44b4e6-bd21-4678-ada5-072a2e7c51c5">
    <g fill="white">
      <rect data-gra="graph-name-bg" stroke-width="2" class="i-icon-bg" x="0" y="0"
        width="101.5999984741211" height="57.220001220703125"></rect>
    </g>
    <g transform="translate(5,5)" fill="black">
      <g data-gra="path-name-1">
        <g transform="scale(1)">
          <path
            d="M40.85-22.41L40.85-22.41Q40.85-19.52 40.18-16.84Q39.51-14.16 38.26-11.81Q37.01-9.46 35.21-7.51Q33.42-5.55 31.18-4.16Q28.95-2.76 26.31-1.98Q23.68-1.21 20.73-1.21L20.73-1.21Q17.87-1.21 15.28-1.94Q12.70-2.67 10.44-3.98Q8.19-5.30 6.36-7.16Q4.54-9.01 3.25-11.28Q1.97-13.55 1.25-16.15Q0.54-18.76 0.54-21.58L0.54-21.58Q0.54-24.34 1.21-26.99Q1.87-29.64 3.13-31.99Q4.38-34.34 6.16-36.31Q7.93-38.28 10.14-39.70Q12.35-41.13 14.92-41.93Q17.49-42.72 20.34-42.72L20.34-42.72Q24.95-42.72 28.74-41.29Q32.53-39.86 35.21-37.21Q37.90-34.56 39.37-30.80Q40.85-27.04 40.85-22.41ZM26.76-21.58L26.76-21.58Q26.76-22.95 26.36-24.23Q25.96-25.52 25.20-26.52Q24.44-27.52 23.31-28.14Q22.19-28.75 20.73-28.75L20.73-28.75Q19.23-28.75 18.06-28.22Q16.88-27.68 16.04-26.74Q15.20-25.80 14.76-24.55Q14.31-23.30 14.31-21.90L14.31-21.90Q14.31-20.57 14.69-19.23Q15.08-17.90 15.84-16.82Q16.60-15.74 17.73-15.08Q18.85-14.41 20.34-14.41L20.34-14.41Q21.84-14.41 23.03-15.00Q24.22-15.58 25.04-16.58Q25.87-17.58 26.31-18.88Q26.76-20.19 26.76-21.58ZM75.06-46.27L92.14-46.27L89.22 0.32L74.74 0.95L74.87-23.61L68.33-3.81L62.75-3.81L57.73-21.52L57.67-0.95L43.01-0.51L43.64-44.37L59.95-45.00L66.43-23.99L75.06-46.27Z"
            transform="translate(-0.53955078125, 46.2744140625)"></path>
        </g>
      </g>
    </g>
  </mask>
  <defs v-gra="od"></defs>
</svg>